<?xml version="1.0" standalone="no"?><!DOCTYPE svg PUBLIC "-//W3C//DTD SVG 1.1//EN" "http://www.w3.org/Graphics/SVG/1.1/DTD/svg11.dtd"><svg t="1569925609709" class="icon" viewBox="0 0 1024 1024" version="1.1" xmlns="http://www.w3.org/2000/svg" p-id="6171" xmlns:xlink="http://www.w3.org/1999/xlink" width="48" height="48"><defs><style type="text/css"></style></defs><path d="M482.133333 183.466667L601.6 64l79.637333 119.466667 238.933334-99.562667L760.896 302.933333l119.466667-19.904-59.733334 79.637334L960 422.4l-119.466667 79.637333 119.466667 179.2-99.562667 59.733334L960 960l-258.837333-99.562667-19.925334 119.466667-139.370666-99.541333-99.562667 99.541333-39.808-119.466667L183.466667 960l99.562666-139.370667H203.370667l39.829333-79.658666L64 721.066667l99.562667-99.562667-79.658667-59.733333 99.562667-59.733334L64 283.029333l159.296 59.733334v-79.658667l39.808 39.829333V103.829333l119.466667 119.466667 19.925333-119.466667z" fill="#2c2c2c" p-id="6172"></path></svg>