<?xml version="1.0" standalone="no"?><!DOCTYPE svg PUBLIC "-//W3C//DTD SVG 1.1//EN" "http://www.w3.org/Graphics/SVG/1.1/DTD/svg11.dtd"><svg t="1570033438821" class="icon" viewBox="0 0 1024 1024" version="1.1" xmlns="http://www.w3.org/2000/svg" p-id="3749" xmlns:xlink="http://www.w3.org/1999/xlink" width="48" height="48"><defs><style type="text/css"></style></defs><path d="M640 267c29.4 26.8 44.2 63.8 44.2 111.1 0 34.7-9.8 65.4-29.1 92.2-7.4 8.9-28.9 29.1-64.6 60.7-16.3 13.7-28.4 27.8-36.2 42.5-10 16.8-15 36.2-15 58.2v18.2h-63.8v-18.2c0-26.2 5-49 15-68.5 9.5-22.6 36-53.1 79.6-91.4 10.5-10.5 19.4-20 26.8-28.4 15.2-19.9 22.8-40.7 22.8-62.2 0-31.5-8.7-55.9-26-73.3-18.4-18.4-44.4-27.6-77.9-27.6-38.9 0-68.1 12.9-87.4 38.6-16.9 22.6-25.2 52.8-25.2 90.6h-63c0-54.6 15.5-98.7 46.5-132.3 32.5-34.7 76.6-52 132.3-52 51.1 0.1 91.6 14 121 41.8z m-98.5 451.4c8.9 8.9 13.4 19.9 13.4 33.1 0 13.7-4.4 24.9-13.4 33.8-10 8.9-21.3 13.4-33.9 13.4-13.7 0-25-4.5-33.9-13.4-9.2-8.8-14.3-21.1-14.1-33.8 0-13.6 4.7-24.7 14.1-33.1 8.4-8.9 19.7-13.4 33.9-13.4 13.7 0 25 4.5 33.9 13.4z" p-id="3750"></path></svg>